<svg xmlns="http://www.w3.org/2000/svg" viewBox="0 0 22.7 22.65"><defs><style>.cls-1{fill:#282828;fill-rule:evenodd;}</style></defs><title>icon-user</title><g id="Слой_2" data-name="Слой 2"><g id="первый_экран" data-name="первый экран"><g id="липкое_меню" data-name="липкое меню"><g id="информация_копия" data-name="информация копия"><g id="Логин"><g id="Фигура_32" data-name="Фигура 32"><path class="cls-1" d="M22.65,20.11a10.76,10.76,0,0,0-6.94-7.88l-.24-.09.2-.16a6.63,6.63,0,0,0,2.49-6.29,6.88,6.88,0,0,0-6-5.65A7,7,0,0,0,6.71,1.76,6.63,6.63,0,0,0,7,12l.2.16L7,12.23A10.76,10.76,0,0,0,0,20.11a2,2,0,0,0,.41,1.7,2.24,2.24,0,0,0,1.76.84H4.31a1,1,0,1,0,0-2h-.5A1.34,1.34,0,0,1,2.69,20a1.19,1.19,0,0,1-.12-1.14,9.19,9.19,0,0,1,8.78-5.43,9.19,9.19,0,0,1,8.78,5.43A1.19,1.19,0,0,1,20,20a1.34,1.34,0,0,1-1.12.6h-.5a1,1,0,1,0,0,2h2.09a2.25,2.25,0,0,0,1.76-.84A2,2,0,0,0,22.65,20.11Zm-11.3-8.65A4.79,4.79,0,0,1,6.51,6.74a4.84,4.84,0,0,1,9.67,0A4.79,4.79,0,0,1,11.35,11.47Zm2.35,9.18H9a1,1,0,1,0,0,2H13.7a1,1,0,1,0,0-2Z"/></g></g></g></g></g></g></svg>