<svg xmlns="http://www.w3.org/2000/svg" viewBox="0 0 23.44 23.34"><defs><style>.cls-1{fill:#282828;fill-rule:evenodd;}</style></defs><title>icon-basket</title><g id="Слой_2" data-name="Слой 2"><g id="первый_экран" data-name="первый экран"><g id="липкое_меню" data-name="липкое меню"><g id="информация_копия" data-name="информация копия"><g id="корзина"><g id="Фигура_31" data-name="Фигура 31"><path class="cls-1" d="M23.42,20.81,21.72,9c-.28-2-2.12-1.94-3.59-1.91h-.62V5.76A5.58,5.58,0,0,0,11.72,0,5.78,5.78,0,0,0,5.93,5.76V7.09H4.28A2.62,2.62,0,0,0,1.72,9L0,20.81a2.22,2.22,0,0,0,2.2,2.53h19a2.22,2.22,0,0,0,2.2-2.53ZM8,5.76a3.71,3.71,0,0,1,3.71-3.69,3.47,3.47,0,0,1,3.71,3.69V7.09H8ZM20.86,20.82a1.34,1.34,0,0,1-1,.46H3.59a1.34,1.34,0,0,1-1-.46,1.32,1.32,0,0,1-.31-1.06c.32-2.21.54-3.94.72-5.33.67-5.18.69-5.3,2.47-5.27h.47v.15c0,.29,0,.57,0,.84,0,1,0,1.92.34,2.32a1,1,0,0,0,.71.24,1,1,0,0,0,1-1V9.16h7.42v2.51a1,1,0,0,0,2.08,0V9.16h.32c.93,0,1.82,0,2,1.14l1.36,9.46A1.32,1.32,0,0,1,20.86,20.82Z"/></g></g></g></g></g></g></svg>